<svg version="1.1" id="Layer_1" xmlns="http://www.w3.org/2000/svg" xmlns:xlink="http://www.w3.org/1999/xlink" x="0px" y="0px" enable-background="new 0 0 512 512" xml:space="preserve" viewBox="0.98 1 512.02 512">
<path fill="#007593" opacity="1.000000" stroke="none" d=" M0.999999,489.000000   C1.000000,334.642578 1.000000,180.285187 1.355052,25.613285   C7.088536,15.278317 14.308670,7.197663 25.146694,2.855446   C25.605307,2.671705 25.723316,1.637832 26.000000,1.000000   C179.690750,1.000000 333.381500,1.000000 487.382141,1.353230   C488.158691,2.136704 488.553345,2.728596 489.102661,2.973191   C499.163422,7.453071 506.944550,14.257791 511.408875,24.536598   C511.549469,24.860348 512.452454,24.852997 513.000000,25.000004   C513.000000,179.357407 513.000000,333.714813 512.644958,488.386688   C506.911499,498.721680 499.691376,506.802338 488.853271,511.144501   C488.394653,511.328247 488.276672,512.362183 488.000000,513.000000   C334.309265,513.000000 180.618515,513.000000 26.617842,512.646851   C25.841305,511.863373 25.446695,511.271423 24.897404,511.026855   C14.836610,506.546936 7.055431,499.742249 2.591137,489.463409   C2.450530,489.139648 1.547560,489.147003 0.999999,489.000000  M340.978485,152.553101   C309.383789,131.296570 274.558197,124.888168 237.441315,131.184067   C200.719833,137.412903 176.552948,162.033646 172.500504,196.707703   C169.168198,225.219727 178.598999,248.238510 203.611282,263.662598   C210.250961,267.757050 217.191620,271.533813 224.380310,274.529694   C236.818634,279.713348 249.665466,283.913300 262.130310,289.038177   C269.015015,291.868835 275.984619,295.020020 282.005737,299.305573   C292.025696,306.437347 290.635345,320.243835 279.773743,326.065369   C277.039795,327.530701 273.910431,328.564941 270.844360,329.052216   C255.317398,331.519897 240.505280,328.240417 226.703033,321.505341   C215.709305,316.140747 205.460602,309.249359 194.362930,302.731384   C183.642990,317.357605 172.355255,332.758545 161.105240,348.107971   C161.664505,348.803741 161.917313,349.262543 162.294601,349.567139   C201.500595,381.217072 245.942078,392.495331 294.876892,380.613098   C336.494629,370.507629 358.474396,335.430115 352.028534,293.287262   C348.834808,272.406769 336.696808,257.510193 318.777618,247.761780   C305.981384,240.800354 292.068268,235.901321 278.694336,229.989670   C267.302582,224.954178 255.772949,220.172211 244.685669,214.528839   C238.360611,211.309433 235.826248,205.118896 237.076553,197.960709   C238.279190,191.075409 243.081833,187.088959 249.458649,185.725494   C254.742142,184.595810 260.377747,184.133484 265.753143,184.593307   C283.162811,186.082565 298.346680,193.531235 312.515198,203.325562   C314.111725,204.429184 315.702423,205.541229 317.555359,206.829849   C328.444458,190.792999 339.070129,175.144119 349.912079,159.176666   C346.871033,156.910355 344.223175,154.937057 340.978485,152.553101  z"/>
<path fill="#000000" opacity="1.000000" stroke="none" d=" M25.531321,1.000000   C25.723316,1.637832 25.605307,2.671705 25.146694,2.855446   C14.308670,7.197663 7.088536,15.278317 1.355052,25.149401   C1.000000,17.072140 1.000000,9.144280 1.000000,1.000000   C9.019587,1.000000 17.041115,1.000000 25.531321,1.000000  z"/>
<path fill="#000000" opacity="1.000000" stroke="none" d=" M513.000000,24.531311   C512.452454,24.852997 511.549469,24.860348 511.408875,24.536598   C506.944550,14.257791 499.163422,7.453071 489.102661,2.973191   C488.553345,2.728596 488.158691,2.136704 487.846039,1.353230   C496.258179,1.000000 504.516357,1.000000 513.000000,1.000000   C513.000000,8.686074 513.000000,16.374346 513.000000,24.531311  z"/>
<path fill="#000000" opacity="1.000000" stroke="none" d=" M0.999999,489.468689   C1.547560,489.147003 2.450530,489.139648 2.591137,489.463409   C7.055431,499.742249 14.836610,506.546936 24.897404,511.026855   C25.446695,511.271423 25.841305,511.863373 26.153957,512.646851   C17.741817,513.000000 9.483635,513.000000 1.000000,513.000000   C1.000000,505.313934 1.000000,497.625641 0.999999,489.468689  z"/>
<path fill="#000000" opacity="1.000000" stroke="none" d=" M488.468689,513.000000   C488.276672,512.362183 488.394653,511.328247 488.853271,511.144501   C499.691376,506.802338 506.911499,498.721680 512.644958,488.850586   C513.000000,496.927856 513.000000,504.855713 513.000000,513.000000   C504.980408,513.000000 496.958893,513.000000 488.468689,513.000000  z"/>
<path fill="#FDFEFE" opacity="1.000000" stroke="none" d=" M341.276917,152.758438   C344.223175,154.937057 346.871033,156.910355 349.912079,159.176666   C339.070129,175.144119 328.444458,190.792999 317.555359,206.829849   C315.702423,205.541229 314.111725,204.429184 312.515198,203.325562   C298.346680,193.531235 283.162811,186.082565 265.753143,184.593307   C260.377747,184.133484 254.742142,184.595810 249.458649,185.725494   C243.081833,187.088959 238.279190,191.075409 237.076553,197.960709   C235.826248,205.118896 238.360611,211.309433 244.685669,214.528839   C255.772949,220.172211 267.302582,224.954178 278.694336,229.989670   C292.068268,235.901321 305.981384,240.800354 318.777618,247.761780   C336.696808,257.510193 348.834808,272.406769 352.028534,293.287262   C358.474396,335.430115 336.494629,370.507629 294.876892,380.613098   C245.942078,392.495331 201.500595,381.217072 162.294601,349.567139   C161.917313,349.262543 161.664505,348.803741 161.105240,348.107971   C172.355255,332.758545 183.642990,317.357605 194.362930,302.731384   C205.460602,309.249359 215.709305,316.140747 226.703033,321.505341   C240.505280,328.240417 255.317398,331.519897 270.844360,329.052216   C273.910431,328.564941 277.039795,327.530701 279.773743,326.065369   C290.635345,320.243835 292.025696,306.437347 282.005737,299.305573   C275.984619,295.020020 269.015015,291.868835 262.130310,289.038177   C249.665466,283.913300 236.818634,279.713348 224.380310,274.529694   C217.191620,271.533813 210.250961,267.757050 203.611282,263.662598   C178.598999,248.238510 169.168198,225.219727 172.500504,196.707703   C176.552948,162.033646 200.719833,137.412903 237.441315,131.184067   C274.558197,124.888168 309.383789,131.296570 341.276917,152.758438  z"/>
</svg>